<?xml version="1.0" encoding="UTF-8"?>
<svg width="200px" height="165px" viewBox="0 0 200 165" version="1.1" xmlns="http://www.w3.org/2000/svg" xmlns:xlink="http://www.w3.org/1999/xlink">
    <!-- Generator: Sketch 44.1 (41455) - http://www.bohemiancoding.com/sketch -->
    <title>Group 17</title>
    <desc>Created with Sketch.</desc>
    <defs></defs>
    <g id="Page-1" stroke="none" stroke-width="1" fill="none" fill-rule="evenodd">
        <g id="Home-Copy" transform="translate(-1011.000000, -993.000000)">
            <g id="Group-17" transform="translate(1011.000000, 993.000000)">
                <g id="noun_657043_cc" transform="translate(0.000000, 23.827957)">
                    <g id="Group">
                        <path d="M129.767194,137.929432 C117.401411,118.735654 94.2579798,108.27704 70.7990723,108.27704 C47.3407097,108.27704 24.1274199,118.804455 11.8250899,138.040345 C10.0872676,140.7576 6.47571425,141.551586 3.75845985,139.813764 C1.04120545,138.075942 0.247218907,134.464388 1.98504127,131.747134 C14.1635037,112.704923 34.8776636,101.030606 57.1260571,97.6341395 C57.121281,95.8151422 57.0730297,93.6222144 56.9584327,91.173485 C56.735971,86.4198792 56.3037561,81.7378632 55.6181726,77.3995733 C54.8929655,72.8105485 53.9175003,68.844108 52.6975974,65.7180377 C51.2003458,61.8812461 49.0642632,57.9981747 46.4519917,54.177471 C44.7451958,51.6811147 42.9260448,49.3413577 41.0950284,47.2111059 C40.018389,48.8801535 39.1073259,50.8182649 38.419793,53.0527468 C37.774237,55.1508045 37.2350728,57.8088835 36.8120034,60.8761361 C36.3539065,64.1973392 36.0561076,67.7957424 35.8903984,71.3999157 C35.8322025,72.6656781 35.7948364,73.8395957 35.774151,74.8893824 C35.7619392,75.5091234 35.7579591,75.9419716 35.7579591,76.1560194 C35.7579591,79.3814648 33.143219,81.9962049 29.9177736,81.9962049 C26.6923282,81.9962049 24.077588,79.3814648 24.077588,76.1560194 C24.077588,75.8676337 24.0822705,75.3584194 24.0960467,74.6592721 C24.1186745,73.5109126 24.1592723,72.2354669 24.2223533,70.8634537 C24.4031501,66.9311248 24.7290617,62.9930261 25.2411811,59.2801606 C25.7433845,55.639186 26.4015195,52.3945804 27.2559396,49.6177149 C27.9253655,47.4420808 28.7545791,45.4263986 29.7197972,43.5684797 C29.0198661,43.6412317 28.3297553,43.7358746 27.6540028,43.854131 C26.072776,44.1308457 24.6451236,44.5285489 23.4037205,45.0458002 C21.1243735,45.9955282 18.8280857,47.6149252 16.6258115,49.7318999 C15.2075764,51.0952033 13.9215781,52.5728024 12.8054056,54.0472305 C12.1511573,54.9114714 11.7170986,55.5534885 11.530874,55.8561036 C9.84042636,58.603081 6.24318262,59.4595676 3.49620521,57.7691197 C0.749227803,56.0786722 -0.107258805,52.4814283 1.58318883,49.7344509 C2.9397199,47.5300881 5.28608524,44.4306152 8.53122972,41.311163 C11.7018506,38.2633477 15.1517857,35.8303711 18.91127,34.2639194 C20.9987727,33.3941266 23.2504371,32.7668772 25.6405366,32.3486099 C29.1326952,31.737482 32.7178123,31.5886081 36.217448,31.7616294 C36.8770668,26.6564006 38.2582237,20.7590213 40.4339521,16.1790254 C41.7068647,13.4994934 43.3229491,10.9981644 45.1991779,8.67297688 C48.0047347,5.19608432 50.8168892,2.71729408 52.8413404,1.29503603 C55.4805749,-0.559132063 59.1231973,0.0772901834 60.9773654,2.71652493 C62.8315335,5.35575937 62.1951113,8.99838179 59.5558765,10.8525499 C59.3200013,11.0182616 58.7815,11.437872 58.0433966,12.0884774 C56.7658561,13.2145732 55.4809752,14.5310477 54.2892719,16.0079109 C52.9624241,17.6522572 51.8406057,19.3885756 50.9843629,21.1910011 C50.1991237,22.8439616 49.5323737,24.8353023 48.9892022,27.051205 C52.586164,25.3868628 56.1694186,24.2039975 59.6907054,23.662261 C65.3093,22.7978619 71.1007264,23.490853 76.722833,25.1421009 C79.0742648,25.8327315 80.8915489,26.5372786 82.0067283,27.0519765 C84.9353016,28.4036258 86.2136513,31.8734319 84.862002,34.8020055 C83.5103526,37.7305788 80.0405466,39.0089286 77.111973,37.6572792 C76.4840357,37.3674618 75.1886118,36.8652359 73.4312688,36.3490931 C69.3140571,35.1398421 65.144817,34.6409589 61.4667899,35.2068092 C58.460065,35.6693823 55.0334427,36.9633516 51.5033358,38.8432901 C50.9976637,39.1125828 50.5005418,39.3881537 50.0136216,39.6680087 C52.0904938,42.088963 54.1492316,44.7404285 56.0941135,47.5850095 C59.1761068,52.0927266 61.7315632,56.7381556 63.5788016,61.4718082 C65.1427452,65.4795023 66.3094916,70.2237321 67.1553686,75.5763413 C67.9145886,80.3805953 68.3849414,85.4757416 68.6260342,90.6274584 C68.7293041,92.8341497 68.7826326,94.8532294 68.8001652,96.6187566 C69.4662485,96.6040391 70.1326111,96.5966688 70.7990723,96.5966688 C96.7848847,96.5966688 122.555641,107.737911 137.622176,128.717689 L170.082226,128.717689 C173.307672,128.717689 175.922412,131.332429 175.922412,134.557875 C175.922412,137.78332 173.307672,140.39806 170.082226,140.39806 L136.229374,140.39806 C133.832552,141.059639 131.184916,140.129976 129.767194,137.929432 Z" id="Shape" fill="#324B5A"></path>
                        <path d="M193.442969,93.676576 C196.668414,93.676576 199.283154,91.0618359 199.283154,87.8363905 C199.283154,84.6109451 196.668414,81.9962049 193.442969,81.9962049 L117.520557,81.9962049 C114.295111,81.9962049 111.680371,84.6109451 111.680371,87.8363905 C111.680371,91.0618359 114.295111,93.676576 117.520557,93.676576 L193.442969,93.676576 Z M181.762598,117.037318 C184.988043,117.037318 187.602783,114.422578 187.602783,111.197133 C187.602783,107.971687 184.988043,105.356947 181.762598,105.356947 L143.801392,105.356947 C140.575946,105.356947 137.961206,107.971687 137.961206,111.197133 C137.961206,114.422578 140.575946,117.037318 143.801392,117.037318 L181.762598,117.037318 Z" id="Shape" fill="#1976D2"></path>
                    </g>
                </g>
                <circle id="Oval-7" fill="#FFC107" cx="166.519713" cy="24.8207885" r="24.8207885"></circle>
            </g>
        </g>
    </g>
</svg>