<?xml version="1.0" encoding="UTF-8"?>
<svg width="175px" height="175px" viewBox="0 0 175 175" version="1.1" xmlns="http://www.w3.org/2000/svg" xmlns:xlink="http://www.w3.org/1999/xlink">
    <!-- Generator: Sketch 44.1 (41455) - http://www.bohemiancoding.com/sketch -->
    <title>Group 19</title>
    <desc>Created with Sketch.</desc>
    <defs></defs>
    <g id="Page-1" stroke="none" stroke-width="1" fill="none" fill-rule="evenodd">
        <g id="Home-Copy" transform="translate(-633.000000, -988.000000)">
            <g id="Group-19" transform="translate(633.000000, 988.000000)">
                <path d="M57.97647,38.6803711 C60.5520662,38.6803711 62.6399994,36.0656309 62.6399994,32.8401855 C62.6399994,29.6147401 60.5520662,27 57.97647,27 L27.6635293,27 C25.0879332,27 23,29.6147401 23,32.8401855 C23,36.0656309 25.0879332,38.6803711 27.6635293,38.6803711 L57.97647,38.6803711 Z" id="Path" fill-opacity="0.970000029" fill="#D8D8D8"></path>
                <path d="M57.97647,72.6803711 C60.5520662,72.6803711 62.6399994,70.0656309 62.6399994,66.8401855 C62.6399994,63.6147401 60.5520662,61 57.97647,61 L27.6635293,61 C25.0879332,61 23,63.6147401 23,66.8401855 C23,70.0656309 25.0879332,72.6803711 27.6635293,72.6803711 L57.97647,72.6803711 Z" id="Path-Copy" fill-opacity="0.970000029" fill="#D8D8D8"></path>
                <path d="M57.97647,89.6803711 C60.5520662,89.6803711 62.6399994,87.0656309 62.6399994,83.8401855 C62.6399994,80.6147401 60.5520662,78 57.97647,78 L27.6635293,78 C25.0879332,78 23,80.6147401 23,83.8401855 C23,87.0656309 25.0879332,89.6803711 27.6635293,89.6803711 L57.97647,89.6803711 Z" id="Path-Copy-3" fill-opacity="0.970000029" fill="#D8D8D8"></path>
                <path d="M57.97647,55.6803711 C60.5520662,55.6803711 62.6399994,53.0656309 62.6399994,49.8401855 C62.6399994,46.6147401 60.5520662,44 57.97647,44 L27.6635293,44 C25.0879332,44 23,46.6147401 23,49.8401855 C23,53.0656309 25.0879332,55.6803711 27.6635293,55.6803711 L57.97647,55.6803711 Z" id="Path-Copy-2" fill-opacity="0.970000029" fill="#D8D8D8"></path>
                <g id="noun_833489_cc" fill-rule="nonzero">
                    <g id="Group">
                        <g id="Shape">
                            <path d="M76.2891055,145.832604 L98.7018178,145.832604 C99.1085645,150.794245 100.48783,156.032974 102.618513,160.415937 L72.3378496,160.415937 C74.478864,156.032286 75.8720411,150.792662 76.2891055,145.832604 Z M117.867604,174.999271 C125.788967,174.999271 128.508788,164.993014 122.5658,160.578222 L117.57767,156.873587 C115.011039,154.966848 112.320125,144.973416 113.403843,140.134492 C114.424397,135.5776 110.958213,131.249271 106.288437,131.249271 L68.7144792,131.249271 C64.0447044,131.249271 60.5785203,135.5776 61.5990742,140.134492 C62.6767016,144.946223 59.9532827,154.94771 57.3696352,156.869692 L52.3779968,160.578806 C46.4218631,164.940829 49.1221159,174.999271 57.0696875,174.999271 L117.867604,174.999271 Z" fill="#324B5A"></path>
                            <path d="M7.29166667,145.833333 L167.708333,145.833333 C171.735409,145.833333 175,142.568743 175,138.541667 L175,7.29166667 C175,3.26459036 171.735409,0 167.708333,0 L7.29166667,0 C3.26459036,0 0,3.26459036 0,7.29166667 L0,138.541667 C0,142.568743 3.26459036,145.833333 7.29166667,145.833333 Z M14.5833333,14.5833333 L160.416667,14.5833333 L160.416667,131.25 L14.5833333,131.25 L14.5833333,14.5833333 Z" fill="#324B5A"></path>
                            <path d="M7.29166667,116.666667 L167.708333,116.666667 C171.735409,116.666667 175,113.402076 175,109.375 L175,7.29166667 C175,3.26459036 171.735409,0 167.708333,0 L7.29166667,0 C3.26459036,0 0,3.26459036 0,7.29166667 L0,109.375 C0,113.402076 3.26459036,116.666667 7.29166667,116.666667 Z M14.5833333,14.5833333 L160.416667,14.5833333 L160.416667,102.083333 L14.5833333,102.083333 L14.5833333,14.5833333 Z" fill="#324B5A"></path>
                            <path d="M85.3643204,60.4682839 C82.5167474,57.6207109 77.8999193,57.6207109 75.0523462,60.4682839 C72.2047734,63.3158568 72.2047734,67.9326848 75.0523462,70.7802578 L89.6356796,85.3635913 C92.4832526,88.2111643 97.1000807,88.2111643 99.9476537,85.3635913 L150.98932,34.3219244 C153.836893,31.4743515 153.836893,26.8575235 150.98932,24.0099506 C148.141747,21.1623776 143.524919,21.1623776 140.677346,24.0099506 L94.7916667,69.8956303 L85.3643204,60.4682839 Z" fill="#1976D2"></path>
                            <path d="M123.958333,43.7492708 L123.958333,72.9159375 C123.958333,76.9430134 127.222924,80.2076042 131.25,80.2076042 C135.277076,80.2076042 138.541667,76.9430134 138.541667,72.9159375 L138.541667,43.7492708 C138.541667,39.7221945 135.277076,36.4576042 131.25,36.4576042 C127.222924,36.4576042 123.958333,39.7221945 123.958333,43.7492708 Z" fill="#1976D2"></path>
                            <path d="M131.25,36.4576042 L102.083333,36.4576042 C98.0562574,36.4576042 94.7916667,39.7221945 94.7916667,43.7492708 C94.7916667,47.7763471 98.0562574,51.0409375 102.083333,51.0409375 L131.25,51.0409375 C135.277076,51.0409375 138.541667,47.7763471 138.541667,43.7492708 C138.541667,39.7221945 135.277076,36.4576042 131.25,36.4576042 Z" fill="#1976D2"></path>
                        </g>
                    </g>
                </g>
            </g>
        </g>
    </g>
</svg>