<?xml version="1.0" encoding="UTF-8"?>
<svg width="104px" height="104px" viewBox="0 0 104 104" version="1.1" xmlns="http://www.w3.org/2000/svg" xmlns:xlink="http://www.w3.org/1999/xlink">
    <!-- Generator: Sketch 48.1 (47250) - http://www.bohemiancoding.com/sketch -->
    <title>ic_error</title>
    <desc>Created with Sketch.</desc>
    <defs>
        <path d="M62,10.3333333 C33.48,10.3333333 10.3333333,33.48 10.3333333,62 C10.3333333,90.52 33.48,113.666667 62,113.666667 C90.52,113.666667 113.666667,90.52 113.666667,62 C113.666667,33.48 90.52,10.3333333 62,10.3333333 L62,10.3333333 Z M67.1666667,87.8333333 L56.8333333,87.8333333 L56.8333333,77.5 L67.1666667,77.5 L67.1666667,87.8333333 L67.1666667,87.8333333 Z M67.1666667,67.1666667 L56.8333333,67.1666667 L56.8333333,36.1666667 L67.1666667,36.1666667 L67.1666667,67.1666667 L67.1666667,67.1666667 Z" id="path-1"></path>
        <rect id="path-3" x="0" y="0" width="258.333333" height="258.333333"></rect>
    </defs>
    <g id="Single-Premium-Mock" stroke="none" stroke-width="1" fill="none" fill-rule="evenodd" transform="translate(-119.000000, -2326.000000)">
        <g id="ic_error" transform="translate(109.000000, 2316.000000)">
            <mask id="mask-2" fill="white">
                <use xlink:href="#path-1"></use>
            </mask>
            <g id="Mask"></g>
            <g id="🎨-Color" stroke-width="1" fill-rule="evenodd" mask="url(#mask-2)">
                <g transform="translate(-67.166667, -67.166667)">
                    <mask id="mask-4" fill="white">
                        <use xlink:href="#path-3"></use>
                    </mask>
                    <use id="Black" stroke="none" fill="#FF0000" fill-rule="evenodd" xlink:href="#path-3"></use>
                </g>
            </g>
        </g>
    </g>
</svg>