<?xml version="1.0" encoding="UTF-8"?>
<svg width="20px" height="19px" viewBox="0 0 20 19" version="1.1" xmlns="http://www.w3.org/2000/svg" xmlns:xlink="http://www.w3.org/1999/xlink">
    <!-- Generator: Sketch 48.1 (47250) - http://www.bohemiancoding.com/sketch -->
    <title>ic_work</title>
    <desc>Created with Sketch.</desc>
    <defs>
        <path d="M20,6 L16,6 L16,4 C16,2.89 15.11,2 14,2 L10,2 C8.89,2 8,2.89 8,4 L8,6 L4,6 C2.89,6 2.01,6.89 2.01,8 L2,19 C2,20.11 2.89,21 4,21 L20,21 C21.11,21 22,20.11 22,19 L22,8 C22,6.89 21.11,6 20,6 L20,6 Z M14,6 L10,6 L10,4 L14,4 L14,6 L14,6 Z" id="path-1"></path>
        <path d="M37.6666667,8.5 L29.3333333,8.5 L29.3333333,4.33333333 C29.3333333,2.02083333 27.4791667,0.166666667 25.1666667,0.166666667 L16.8333333,0.166666667 C14.5208333,0.166666667 12.6666667,2.02083333 12.6666667,4.33333333 L12.6666667,8.5 L4.33333333,8.5 C2.02083333,8.5 0.1875,10.3541667 0.1875,12.6666667 L0.166666667,35.5833333 C0.166666667,37.8958333 2.02083333,39.75 4.33333333,39.75 L37.6666667,39.75 C39.9791667,39.75 41.8333333,37.8958333 41.8333333,35.5833333 L41.8333333,12.6666667 C41.8333333,10.3541667 39.9791667,8.5 37.6666667,8.5 L37.6666667,8.5 Z M25.1666667,8.5 L16.8333333,8.5 L16.8333333,4.33333333 L25.1666667,4.33333333 L25.1666667,8.5 L25.1666667,8.5 Z" id="path-3"></path>
    </defs>
    <g id="Single-Premium-Mock" stroke="none" stroke-width="1" fill="none" fill-rule="evenodd" transform="translate(-709.000000, -354.000000)">
        <g id="ic_work" transform="translate(707.000000, 352.000000)">
            <mask id="mask-2" fill="white">
                <use xlink:href="#path-1"></use>
            </mask>
            <use id="Mask" fill="#1976D2" fill-rule="evenodd" xlink:href="#path-1"></use>
            <g id="🎨-Color" stroke-width="1" fill-rule="evenodd" mask="url(#mask-2)">
                <g transform="translate(-9.000000, -9.000000)">
                    <mask id="mask-4" fill="white">
                        <use xlink:href="#path-3"></use>
                    </mask>
                    <use id="Mask" stroke="none" fill="#1976D2" fill-rule="evenodd" xlink:href="#path-3"></use>
                </g>
            </g>
        </g>
    </g>
</svg>