<?xml version="1.0" encoding="UTF-8"?>
<svg width="31px" height="31px" viewBox="0 0 31 31" version="1.1" xmlns="http://www.w3.org/2000/svg" xmlns:xlink="http://www.w3.org/1999/xlink">
    <!-- Generator: Sketch 48.1 (47250) - http://www.bohemiancoding.com/sketch -->
    <title>ic_cancel</title>
    <desc>Created with Sketch.</desc>
    <defs>
        <path d="M15.5,0 C6.9285,0 0,6.9285 0,15.5 C0,24.0715 6.9285,31 15.5,31 C24.0715,31 31,24.0715 31,15.5 C31,6.9285 24.0715,0 15.5,0 L15.5,0 Z M23.25,21.0645 L21.0645,23.25 L15.5,17.6855 L9.9355,23.25 L7.75,21.0645 L13.3145,15.5 L7.75,9.9355 L9.9355,7.75 L15.5,13.3145 L21.0645,7.75 L23.25,9.9355 L17.6855,15.5 L23.25,21.0645 L23.25,21.0645 Z" id="path-1"></path>
        <rect id="path-3" x="0" y="0" width="77.5" height="77.5"></rect>
    </defs>
    <g id="About" stroke="none" stroke-width="1" fill="none" fill-rule="evenodd" transform="translate(-1164.000000, -7048.000000)">
        <g id="ic_cancel" transform="translate(1164.000000, 7048.000000)">
            <mask id="mask-2" fill="white">
                <use xlink:href="#path-1"></use>
            </mask>
            <use id="Mask" fill="#1976D2" xlink:href="#path-1"></use>
            <g id="🎨-Color" mask="url(#mask-2)">
                <g transform="translate(-23.250000, -23.250000)">
                    <mask id="mask-4" fill="white">
                        <use xlink:href="#path-3"></use>
                    </mask>
                    <use id="Black" stroke="none" fill="#1976D2" fill-rule="evenodd" xlink:href="#path-3"></use>
                </g>
            </g>
        </g>
    </g>
</svg>