<?xml version="1.0" encoding="UTF-8"?>
<svg width="380px" height="116px" viewBox="0 0 380 116" version="1.1" xmlns="http://www.w3.org/2000/svg" xmlns:xlink="http://www.w3.org/1999/xlink">
    <!-- Generator: Sketch 44.1 (41455) - http://www.bohemiancoding.com/sketch -->
    <title>Group 4</title>
    <desc>Created with Sketch.</desc>
    <defs></defs>
    <g id="Page-1" stroke="none" stroke-width="1" fill="none" fill-rule="evenodd">
        <g id="Desktop-HD" transform="translate(-308.000000, -2366.000000)">
            <g id="Group-4" transform="translate(307.000000, 2366.000000)">
                <g id="Group-7" transform="translate(0.000000, 20.000000)" fill="#FFFFFF">
                    <text id="TAMPA" font-family="Nunito-Black, Nunito" font-size="48" font-weight="700" line-spacing="50" letter-spacing="2.70000005">
                        <tspan x="95" y="76">TAMPA</tspan>
                    </text>
                    <text id="Cheap-Flights-From" font-family="Nunito-Regular, Nunito" font-size="20" font-weight="normal" letter-spacing="3.41000009">
                        <tspan x="0" y="20">Cheap Flights Fro</tspan>
                        <tspan x="214.770001" y="20">m</tspan>
                    </text>
                </g>
                <g id="Group-4-Copy-2" transform="translate(293.000000, 0.000000)">
                    <path d="M37.1292658,60.8224824 L34.3759301,53.5525565 C34.179821,53.0347487 34.4656652,52.6179591 35.0129904,52.6179591 L48.8734596,52.6179591 C49.4074294,52.6179591 50.1948125,52.9205515 50.602299,53.2938181 L77.2516803,77.7052416 C77.6540495,78.0738207 78.4328279,78.3811006 78.9797009,78.3811006 L77.9894998,78.3811006 C83.4581156,78.3811006 87.9239458,73.9039512 87.9074794,68.3811075 L87.7652331,20.6715559 C87.7322958,9.62432997 78.7564775,0.791637883 67.7171694,0.938963582 L22.0936987,1.54783414 C11.0639459,1.69503232 2.10526316,10.766029 2.10526316,21.8081874 L2.10526316,100.29576 C2.10526316,108.574719 8.82345843,115.291412 17.1107723,115.291412 L37.7645239,115.291412 C48.8011931,115.291412 54.5877691,106.920032 50.6767728,96.5934111 L44.3953325,80.0078538 C44.1297767,80.2130799 43.8249985,80.3768971 43.487492,80.4865596 L40.6343225,81.4136106 C39.0585605,81.9256067 37.3660981,81.0632541 36.854102,79.487492 L35.927051,76.6343225 C35.4150549,75.0585605 36.2774075,73.3660981 37.8531695,72.854102 L40.7063391,71.927051 C40.8988318,71.8645063 41.093066,71.8224706 41.286677,71.7997391 L40.2652856,69.1028503 C40.0317114,69.2639641 39.7711616,69.3943898 39.487492,69.4865596 L36.6343225,70.4136106 C35.0585605,70.9256067 33.3660981,70.0632541 32.854102,68.487492 L31.927051,65.6343225 C31.4150549,64.0585605 32.2774075,62.3660981 33.8531695,61.854102 L36.7063391,60.927051 C36.8466943,60.8814468 36.9879755,60.8467463 37.1292658,60.8224824 Z" id="Combined-Shape" fill="#1976D2"></path>
                    <path d="M58.7163914,11.5638516 C57.3054042,10.3908125 55.5200706,9.69013594 53.5784416,9.69013594 C49.0114714,9.69013594 45.3092105,13.5666507 45.3092105,18.3485739 C45.3092105,20.4047016 45.9936924,22.2934354 47.1370837,23.7785858 C46.1835373,28.6898288 49.4711527,32.6538193 54.5316889,32.6538193 C54.5316889,32.6538193 55.5539651,32.6538193 60.9079874,32.6538193 C66.2620097,32.6538193 76.5067643,32.6538193 76.5067643,32.6538193 C76.5067643,32.6538193 76.5067643,32.6527154 76.5067571,32.6505248 C76.5691449,32.6527152 76.6317987,32.6538193 76.6947013,32.6538193 C79.7047499,32.6538193 82.1448764,30.1256575 82.1448764,27.0070119 C82.1448764,23.8883663 79.7047499,21.3602045 76.6947013,21.3602045 C76.6296611,21.3602045 76.5648869,21.3613849 76.5003977,21.3637261 C76.504631,21.2375804 76.5067643,21.110911 76.5067643,20.9837507 C76.5067643,14.7464595 71.3740844,9.69013594 65.042603,9.69013594 C62.7043078,9.69013594 60.5295193,10.3797766 58.7163914,11.5638516 Z" id="Combined-Shape" fill="#FFFFFF"></path>
                    <path d="M1.99995613,48.9356963 C2.36960421,48.9356963 2.77049975,48.9356963 3.2051129,48.9356963 C7.73754964,48.9356963 16.4102258,48.9356963 16.4102258,48.9356963 C16.4102258,48.9356963 16.4102258,48.9347618 16.4102197,48.9329073 C16.463034,48.9347617 16.5160734,48.9356963 16.5693235,48.9356963 C19.117474,48.9356963 21.1831582,46.7954861 21.1831582,44.155403 C21.1831582,41.5153199 19.117474,39.3751096 16.5693235,39.3751096 C16.5142638,39.3751096 16.4594294,39.3761089 16.4048362,39.3780908 C16.4084198,39.2713024 16.4102258,39.1640707 16.4102258,39.0564234 C16.4102258,33.7762572 12.0651661,29.4958368 6.70526331,29.4958368 C4.99800473,29.4958368 3.39370974,29.9301181 2,30.6926603 L2,48.9356963 Z" id="Combined-Shape" fill="#FFFFFF"></path>
                </g>
            </g>
        </g>
    </g>
</svg>