<?xml version="1.0" encoding="UTF-8"?>
<svg width="200px" height="200px" viewBox="0 0 200 200" version="1.1" xmlns="http://www.w3.org/2000/svg" xmlns:xlink="http://www.w3.org/1999/xlink">
    <!-- Generator: Sketch 44.1 (41455) - http://www.bohemiancoding.com/sketch -->
    <title>noun_953527_cc</title>
    <desc>Created with Sketch.</desc>
    <defs></defs>
    <g id="Page-1" stroke="none" stroke-width="1" fill="none" fill-rule="evenodd">
        <g id="Single-Blog-Post-Copy" transform="translate(-620.000000, -3159.000000)" fill-rule="nonzero" fill="#EFEFEF">
            <g id="noun_953527_cc" transform="translate(620.000000, 3159.000000)">
                <g id="Group" transform="translate(0.671539, 0.000000)">
                    <path d="M187.516532,40.2368556 L106.465455,121.291369 C104.259095,123.497729 101.368833,124.600909 98.4751333,124.600909 C95.5814339,124.600909 92.6911712,123.497729 90.4848114,121.291369 L58.0973731,88.9004938 C53.6846534,84.487774 53.6846534,77.3325696 58.0973731,72.9232866 C62.5100928,68.5105669 69.6652973,68.5105669 74.0745803,72.9232866 L98.4751333,97.3238396 L171.539325,24.2596484 C175.952044,19.8469287 183.107249,19.8469287 187.516532,24.2596484 C191.929251,28.6689315 191.929251,35.8241359 187.516532,40.2368556 Z" id="Shape"></path>
                    <path d="M174.457081,87.3952202 C175.11349,91.3886628 175.460596,95.4852064 175.460596,99.6642307 C175.460596,141.45791 141.45791,175.460596 99.6642307,175.460596 C57.8705511,175.460596 23.8678649,141.45791 23.8678649,99.6642307 C23.8678649,57.8705511 57.8705511,23.8678649 99.6642307,23.8678649 C110.843808,23.8678649 121.459767,26.3113569 131.02066,30.6759629 L148.740273,12.95635 C134.240845,4.72202252 117.497255,0 99.6642307,0 C44.7079992,0 0,44.7079992 0,99.6642307 C0,154.620462 44.7079992,199.328461 99.6642307,199.328461 C154.620462,199.328461 199.328461,154.620462 199.328461,99.6642307 C199.328461,88.5121469 197.479518,77.7862137 194.084061,67.7682402 L174.457081,87.3952202 Z" id="Shape"></path>
                </g>
            </g>
        </g>
    </g>
</svg>