<?xml version="1.0" encoding="UTF-8"?>
<svg width="261px" height="190px" viewBox="0 0 261 190" version="1.1" xmlns="http://www.w3.org/2000/svg" xmlns:xlink="http://www.w3.org/1999/xlink">
    <!-- Generator: Sketch 44.1 (41455) - http://www.bohemiancoding.com/sketch -->
    <title>noun_755412_cc</title>
    <desc>Created with Sketch.</desc>
    <defs></defs>
    <g id="Page-1" stroke="none" stroke-width="1" fill="none" fill-rule="evenodd">
        <g id="Single-Blog-Post-Copy" transform="translate(-590.000000, -1380.000000)" fill-rule="nonzero" fill="#EFEFEF">
            <g id="noun_755412_cc" transform="translate(590.000000, 1380.000000)">
                <path d="M107.778668,168.765165 L107.778668,149.391572 C107.778668,149.391572 85.5827298,147.886673 72.7910896,140.549632 L79.1855896,116.096345 C79.1855896,116.096345 112.668269,133.590134 129.597061,120.046045 C129.597061,120.046045 144.081052,106.127051 114.173168,95.5927587 C114.173168,95.5927587 84.0778309,87.1283627 77.1183338,70.5744754 C77.1183338,70.5744754 61.1294436,30.3197514 108.908662,20.1630043 L108.72121,0.22441474 L128.847251,0.22441474 L129.034704,18.8455578 C129.034704,18.8455578 146.715945,18.2805607 159.13004,25.4301503 L153.110445,48.3785376 C153.110445,48.3785376 125.647361,35.2119928 108.906022,45.3687399 C108.906022,45.3687399 94.6094827,58.1603801 126.212358,69.4444812 C126.212358,69.4444812 166.467082,78.8487789 164.772091,108.381759 C164.772091,108.381759 166.841987,140.921896 128.279614,147.693941 L128.279614,168.762525 L107.778668,168.762525 L107.778668,168.765165 Z M56.8629234,184.756695 L51.6116185,174.396655 C68.8862731,161.454525 59.7565535,145.967267 59.7565535,145.967267 C53.2274046,131.021246 31.0869104,136.430961 31.0869104,136.430961 C12.7324249,138.756954 16.5738772,128.903827 16.5738772,128.903827 C22.2740116,119.734504 39.0628743,119.36488 39.0628743,119.36488 L36.3012529,106.57852 C28.4150549,106.158733 19.8608931,110.8424 19.8608931,110.8424 L15.1270621,101.731162 L5.22905202,106.747491 L10.2929046,116.505572 C-10.6700723,133.413243 7.22502312,149.222601 7.22502312,149.222601 C14.7732789,155.627662 31.6835896,152.287842 31.6835896,152.287842 C49.016328,150.012013 45.3649682,160.4671 45.3649682,160.4671 C40.4146431,171.347254 19.5889552,171.091158 19.5889552,171.091158 L22.5406691,184.711812 C30.6592023,185.1316 41.9485838,180.337045 41.9485838,180.337045 L46.777461,189.865431 L56.8629234,184.756695 Z M197.658091,189.865431 L203.759532,175.732582 C232.872724,182.911214 240.840767,160.451259 240.840767,160.451259 C250.585647,141.154231 224.965405,122.607013 224.965405,122.607013 C205.982558,105.430045 219.753702,101.195207 219.753702,101.195207 C234.48323,99.4711734 250.007449,116.650782 250.007449,116.650782 L260.892884,103.085571 C254.221166,94.5155679 241.606418,89.5203598 241.606418,89.5203598 L246.868283,76.9716156 L232.695832,70.8543338 L227.053782,84.2875361 C190.468899,76.5782298 190.070233,108.442483 190.070233,108.442483 C190.17584,121.661831 208.918431,136.491685 208.918431,136.491685 C226.927053,152.649546 212.696519,157.58403 212.696519,157.58403 C196.852838,161.523169 178.342582,139.60973 178.342582,139.60973 L166.757501,154.06996 C173.640434,162.880218 188.831991,170.637048 188.831991,170.637048 L183.221623,183.634621 L197.658091,189.865431 Z" id="Shape"></path>
            </g>
        </g>
    </g>
</svg>