<?xml version="1.0" encoding="UTF-8"?>
<svg width="200px" height="162px" viewBox="0 0 200 162" version="1.1" xmlns="http://www.w3.org/2000/svg" xmlns:xlink="http://www.w3.org/1999/xlink">
    <!-- Generator: Sketch 44.1 (41455) - http://www.bohemiancoding.com/sketch -->
    <title>noun_686043_cc</title>
    <desc>Created with Sketch.</desc>
    <defs></defs>
    <g id="Page-1" stroke="none" stroke-width="1" fill="none" fill-rule="evenodd">
        <g id="Home-Copy" transform="translate(-229.000000, -995.000000)" fill-rule="nonzero">
            <g id="noun_686043_cc" transform="translate(229.000000, 995.000000)">
                <path d="M196.257895,85.7654821 C193.035088,78.9121363 187.854386,73.3301307 181.582456,69.5196075 L181.582456,17.5240648 L133.626316,0.0330810707 L90.9385965,15.6039388 L48.2473684,0.0330810707 L0.296491228,17.5240648 L0.296491228,140.266982 L48.2491228,122.779495 L90.9403509,138.346856 L130.861404,123.788523 C137.915789,133.649717 149.457895,139.758096 161.849123,139.758096 C165.678947,139.758096 169.421053,139.17926 173.040351,138.058312 L184.182456,161.750358 L193.715789,157.296296 L182.573684,133.604249 C198.217544,123.461507 204.396491,103.072847 196.257895,85.7654821 Z M42.9859649,113.526866 L10.822807,125.255723 L10.822807,24.8565677 L42.9859649,13.1242132 L42.9859649,113.526866 Z M85.677193,125.255723 L53.5122807,113.526866 L53.5122807,13.1242132 L85.677193,24.8565677 L85.677193,125.255723 Z M171.054386,24.8565677 L171.054386,65.1145097 C168.064912,64.360799 164.966667,63.9428481 161.807018,63.9428481 C156.212281,63.9428481 150.789474,65.1512334 145.689474,67.5365265 C143.252632,68.6732131 140.985965,70.058222 138.887719,71.6355933 L138.887719,13.1242132 L171.054386,24.8565677 Z M96.2035088,24.8565677 L128.364912,13.1242132 L128.364912,83.9432861 C127.501754,85.5556323 126.710526,87.213446 126.075439,88.9621946 C123.05614,97.2774943 123.036842,106.180374 125.952632,114.406487 L96.2035088,125.255723 L96.2035088,24.8565677 L96.2035088,24.8565677 Z M136.931579,113.483148 C133.815789,106.857139 133.473684,99.4144651 135.97193,92.5331393 C138.47193,85.6465672 143.508772,80.1450041 150.159649,77.0392265 C153.850877,75.3149604 157.770175,74.4388373 161.808772,74.4388373 C172.436842,74.4388373 182.217544,80.6346537 186.724561,90.2212936 C193.159649,103.903503 187.224561,120.254302 173.498246,126.668712 C169.807018,128.392979 165.887719,129.267353 161.849123,129.267353 C151.222807,129.265604 141.442105,123.069788 136.931579,113.483148 Z" id="Shape" fill="#324B5A"></path>
                <path d="M182.889474,92.0085147 C179.07193,83.8978186 170.794737,78.656819 161.8,78.656819 C158.4,78.656819 155.085965,79.4000372 151.961404,80.8637398 C146.336842,83.4903602 142.075439,88.145529 139.963158,93.9653644 C137.845614,99.7886973 138.133333,106.084192 140.773684,111.688932 C144.589474,119.804874 152.868421,125.044125 161.864912,125.044125 C165.264912,125.044125 168.573684,124.306153 171.696491,122.844199 C183.310526,117.414335 188.331579,103.581733 182.889474,92.0085147 Z M167.22807,113.346745 C165.514035,114.145923 163.710526,114.551633 161.864912,114.551633 C156.931579,114.551633 152.394737,111.678439 150.301754,107.231371 C148.857895,104.167564 148.7,100.724278 149.859649,97.5380579 C151.015789,94.3518379 153.347368,91.8039111 156.429825,90.3629423 C158.149123,89.5585179 159.95614,89.1493107 161.8,89.1493107 C166.731579,89.1493107 171.266667,92.0225047 173.357895,96.4625775 C176.336842,102.798294 173.587719,110.370375 167.22807,113.346745 Z" id="Shape" fill="#1976D2"></path>
            </g>
        </g>
    </g>
</svg>