<?xml version="1.0" encoding="UTF-8"?>
<svg width="135px" height="209px" viewBox="0 0 135 209" version="1.1" xmlns="http://www.w3.org/2000/svg" xmlns:xlink="http://www.w3.org/1999/xlink">
    <!-- Generator: Sketch 44.1 (41455) - http://www.bohemiancoding.com/sketch -->
    <title>noun_888229_cc</title>
    <desc>Created with Sketch.</desc>
    <defs></defs>
    <g id="Page-1" stroke="none" stroke-width="1" fill="none" fill-rule="evenodd">
        <g id="Single-Blog-Post-Copy" transform="translate(-653.000000, -726.000000)" fill-rule="nonzero" fill="#EFEFEF">
            <g id="noun_888229_cc" transform="translate(653.000000, 726.000000)">
                <g id="Group">
                    <path d="M41.8461273,179.419894 L41.8461273,37.7445647 C46.7058909,33.9118118 49.8344727,27.9864353 49.8344727,21.3486235 C49.8344727,9.82554118 40.4312909,0.449694118 28.8684909,0.449694118 C17.3056909,0.449694118 7.90001818,9.82554118 7.90001818,21.3486235 C7.90001818,27.9889176 11.0286,33.9142941 15.8908545,37.7445647 L15.8908545,179.417412 C6.89369091,184.099129 0.731181818,193.484906 0.731181818,204.280659 C0.731181818,206.638894 2.65167273,208.550306 5.01554545,208.550306 L52.7164545,208.550306 C55.0828182,208.550306 57.0008182,206.638894 57.0008182,204.280659 C57.0008182,193.487388 50.8432909,184.099129 41.8461273,179.419894 Z M28.8684909,176.244965 C27.3639818,176.244965 25.8918545,176.364118 24.4546,176.592494 L24.4546,41.7759059 C25.8769091,42.0787529 27.3540182,42.2425882 28.8684909,42.2425882 C30.3804727,42.2425882 31.8575818,42.0787529 33.2823818,41.7759059 L33.2823818,176.592494 C31.8451273,176.364118 30.3705091,176.244965 28.8684909,176.244965 Z" id="Shape"></path>
                    <path d="M133.2326,74.9798588 C132.764309,74.4387059 121.5602,61.7563647 100.828364,61.7563647 C99.0523455,61.7563647 97.2339818,61.8531765 95.4230909,62.0418353 C94.7904,62.1063765 94.1402727,62.1411294 93.4926364,62.1411294 C74.5966,62.1411294 55.1650182,35.1976706 54.9707273,34.9295765 C53.8921636,33.4153412 51.9542364,32.7674471 50.1807091,33.3309412 C48.4022,33.8944353 47.1966,35.5402353 47.1966,37.3995176 L47.1966,100.150918 C47.1966,101.454153 47.7944182,102.6854 48.8181818,103.497129 C49.5878727,104.102824 67.8213273,118.326706 85.6238545,118.326706 C87.0536364,118.326706 88.4659818,118.234859 89.8160545,118.053647 C91.2682545,117.860024 92.7403818,117.760729 94.1975636,117.760729 C109.023455,117.760729 119.574945,128.000435 119.677073,128.104694 C120.494091,128.913941 121.5876,129.350835 122.701036,129.350835 C123.146909,129.350835 123.595273,129.281329 124.031182,129.137353 C125.563091,128.6384 126.686491,127.322753 126.9306,125.729082 L134.219,78.4129529 C134.4108,77.1792235 134.049618,75.9231529 133.2326,74.9798588 Z" id="Shape"></path>
                </g>
            </g>
        </g>
    </g>
</svg>